<?xml version="1.0" encoding="UTF-8" standalone="no"?>
<!-- Created with Inkscape (http://www.inkscape.org/) -->

<svg
   xmlns:dc="http://purl.org/dc/elements/1.1/"
   xmlns:cc="http://creativecommons.org/ns#"
   xmlns:rdf="http://www.w3.org/1999/02/22-rdf-syntax-ns#"
   xmlns:svg="http://www.w3.org/2000/svg"
   xmlns="http://www.w3.org/2000/svg"
   xmlns:sodipodi="http://sodipodi.sourceforge.net/DTD/sodipodi-0.dtd"
   xmlns:inkscape="http://www.inkscape.org/namespaces/inkscape"
   version="1.1"
   id="svg972"
   width="85.333336"
   height="85.333336"
   viewBox="0 0 85.333336 85.333336"
   sodipodi:docname="invader.svg"
   inkscape:version="0.92.5 (2060ec1f9f, 2020-04-08)">
  <metadata
     id="metadata978">
    <rdf:RDF>
      <cc:Work
         rdf:about="">
        <dc:format>image/svg+xml</dc:format>
        <dc:type
           rdf:resource="http://purl.org/dc/dcmitype/StillImage" />
        <dc:title></dc:title>
      </cc:Work>
    </rdf:RDF>
  </metadata>
  <defs
     id="defs976" />
  <sodipodi:namedview
     pagecolor="#ffffff"
     bordercolor="#666666"
     borderopacity="1"
     objecttolerance="10"
     gridtolerance="10"
     guidetolerance="10"
     inkscape:pageopacity="0"
     inkscape:pageshadow="2"
     inkscape:window-width="1920"
     inkscape:window-height="1019"
     id="namedview974"
     showgrid="false"
     inkscape:zoom="2.7656249"
     inkscape:cx="42.666668"
     inkscape:cy="42.666668"
     inkscape:window-x="0"
     inkscape:window-y="29"
     inkscape:window-maximized="1"
     inkscape:current-layer="svg972" />
  <path
     style="fill:#ff00ff;fill-opacity:1;stroke:none;stroke-width:0.36158192"
     d="m 41.654234,79.475709 c 0,-0.39774 -0.32542,-1.048587 -0.72316,-1.446327 -0.39774,-0.397741 -0.72316,-0.953926 -0.72316,-1.235963 0,-0.908746 -0.42558,-1.656693 -0.94264,-1.656693 -0.31384,0 -0.50369,-0.392179 -0.50369,-1.040474 0,-0.572257 -0.23361,-1.234346 -0.51913,-1.471309 -0.28552,-0.236963 -0.62629,-0.918729 -0.75726,-1.515036 -0.13097,-0.596306 -0.46685,-1.171963 -0.74641,-1.279237 -0.27955,-0.107274 -0.50827,-0.489752 -0.50827,-0.849949 0,-1.041399 -0.39691,-1.798797 -0.94264,-1.798797 -0.31727,0 -0.50369,-0.396761 -0.50369,-1.072026 0,-1.540035 -0.82759,-1.82063 -5.36983,-1.82063 -2.62432,0 -4.01711,-0.1382 -4.10688,-0.40751 -0.17952,-0.538569 -3.05808,-0.990528 -6.47902,-1.017264 -1.98991,-0.01555 -2.88334,-0.172601 -3.20811,-0.563927 -0.30669,-0.369533 -1.12738,-0.542372 -2.57535,-0.542372 -2.26053,0 -2.44684,-0.130047 -1.57168,-1.09708 0.30444,-0.336408 0.65402,-1.488202 0.77684,-2.559544 0.12282,-1.071342 0.44322,-2.268847 0.712,-2.66112 0.26878,-0.39227 0.48869,-1.261524 0.48869,-1.931669 0,-0.67094 0.32496,-1.631555 0.72317,-2.137799 0.41074,-0.522171 0.72316,-1.466858 0.72316,-2.186663 0,-0.71762 0.23883,-1.441945 0.55063,-1.669937 0.30285,-0.221447 0.65295,-1.052941 0.77801,-1.84777 0.12505,-0.79483 0.44676,-1.575261 0.7149,-1.734296 0.26815,-0.159034 0.48754,-0.769204 0.48754,-1.355932 0,-0.586728 0.32542,-1.392202 0.72316,-1.789942 0.39774,-0.397741 0.72316,-1.175139 0.72316,-1.727552 0,-0.556935 0.32217,-1.280236 0.72317,-1.62358 0.39774,-0.340555 0.72316,-1.032671 0.72316,-1.538034 0,-0.505363 0.24407,-1.012499 0.54237,-1.12697 0.29831,-0.11447 0.54238,-0.599092 0.54238,-1.076936 0,-0.477845 0.32542,-1.147445 0.72316,-1.488001 0.39774,-0.340556 0.72316,-0.883237 0.72316,-1.205957 0,-0.322721 0.32543,-0.88127 0.72317,-1.241219 0.39774,-0.35995 0.72316,-0.937252 0.72316,-1.282893 0,-0.345641 0.24407,-0.722095 0.54238,-0.836565 0.2983,-0.114471 0.54237,-0.61429 0.54237,-1.11071 0,-0.532518 0.2965,-1.061264 0.72316,-1.289607 0.41854,-0.223995 0.72317,-0.757088 0.72317,-1.265536 0,-0.508448 0.30462,-1.041542 0.72316,-1.265537 0.39774,-0.212864 0.72316,-0.60796 0.72316,-0.877991 0,-0.270032 0.22873,-0.578736 0.50828,-0.686011 0.27955,-0.107274 0.61791,-0.694174 0.75189,-1.304221 0.13399,-0.610048 0.47476,-1.109178 0.75726,-1.109178 0.28251,0 0.51365,-0.325424 0.51365,-0.723164 0,-0.39774 0.20339,-0.728307 0.45197,-0.734593 0.4475,-0.01132 2.44068,-2.973099 2.44068,-3.626736 0,-0.18658 0.24407,-0.339236 0.54238,-0.339236 0.2983,0 0.54237,-0.207907 0.54237,-0.462015 0,-0.254108 0.28474,-0.722334 0.63277,-1.040502 0.83247,-0.761062 3.07517,-3.4774637 3.49336,-4.2312246 0.18123,-0.3266688 0.54733,-0.7240623 0.81356,-0.8830967 0.26622,-0.1590344 0.48531,-0.4844581 0.48686,-0.7231638 0.003,-0.4525373 1.60413,-1.3379652 2.41955,-1.3379652 0.25865,0 0.47028,0.1627119 0.47028,0.3615819 0,0.1988701 0.32543,0.3615819 0.72317,0.3615819 0.48211,0 0.72316,0.2410547 0.72316,0.7231639 0,0.4017577 0.24106,0.7231639 0.54237,0.7231639 0.29831,0 0.54238,0.1776552 0.54238,0.3947893 0,0.4532618 1.03454,1.8350417 2.98305,3.9842814 0.74576,0.822592 1.35593,1.638223 1.35593,1.812513 0,0.174291 0.24407,0.316892 0.54237,0.316892 0.29831,0 0.54238,0.300205 0.54238,0.667123 0,0.366918 0.32542,0.961628 0.72316,1.321577 0.39774,0.35995 0.72316,0.878411 0.72316,1.152135 0,0.273724 0.23788,0.588961 0.52861,0.700527 0.29074,0.111565 0.62712,0.513238 0.74753,0.892606 0.12041,0.379368 0.45203,0.689761 0.73693,0.689761 0.2849,0 0.51801,0.325423 0.51801,0.723164 0,0.39774 0.32542,1.048587 0.72316,1.446327 0.39774,0.39774 0.72316,0.949824 0.72316,1.226852 0,0.277028 0.22873,0.591457 0.50828,0.698732 0.27955,0.107274 0.61791,0.694174 0.7519,1.304222 0.13398,0.610048 0.47475,1.109177 0.75726,1.109177 0.2825,0 0.51364,0.325424 0.51364,0.723164 0,0.39774 0.32542,1.048588 0.72316,1.446328 0.39774,0.39774 0.72317,0.900889 0.72317,1.118109 0,0.21722 0.32542,0.808655 0.72316,1.314299 0.39774,0.505645 0.72316,1.222835 0.72316,1.593756 0,0.37092 0.24407,0.674401 0.54238,0.674401 0.36015,0 0.54237,0.360169 0.54237,1.072024 0,0.701961 0.24964,1.205626 0.72316,1.45905 0.43372,0.232121 0.72317,0.757088 0.72317,1.311622 0,0.508528 0.32542,1.338305 0.72316,1.84395 0.39774,0.505645 0.72316,1.191736 0.72316,1.524646 0,0.332911 0.2389,0.921137 0.53088,1.30717 0.29198,0.386032 0.53604,1.067979 0.54237,1.515437 0.006,0.447457 0.33692,1.138983 0.73466,1.536723 0.39774,0.39774 0.72317,1.189355 0.72317,1.759147 0,0.569791 0.32542,1.449694 0.72316,1.955337 0.41216,0.523972 0.72317,1.466859 0.72317,2.192427 0,0.700189 0.21752,1.490596 0.48338,1.75646 0.26587,0.265864 0.5775,1.185031 0.69252,2.042594 0.11503,0.857561 0.46699,1.844133 0.78215,2.19238 0.36747,0.406046 0.57302,1.303908 0.57302,2.503008 0,1.387726 0.18646,2.056291 0.72316,2.592998 0.39774,0.39774 0.72317,0.80452 0.72317,0.903955 0,0.09944 -0.96465,0.180791 -2.14367,0.180791 -1.30961,0 -2.33218,0.188518 -2.62818,0.484519 -0.3231,0.323099 -1.92312,0.555369 -4.80264,0.697185 -3.33116,0.16406 -4.41312,0.342573 -4.73372,0.78102 -0.33448,0.457423 -1.19594,0.568349 -4.41395,0.568349 -2.1991,0 -4.25131,0.09707 -4.56047,0.215702 -0.30916,0.118635 -0.66389,0.758212 -0.78828,1.421281 -0.12439,0.663069 -0.45424,1.2931 -0.733,1.40007 -0.27875,0.106967 -0.50683,0.648592 -0.50683,1.203605 0,0.617521 -0.28063,1.184373 -0.72316,1.460741 -0.41273,0.257753 -0.72317,0.843216 -0.72317,1.363861 0,0.501732 -0.23964,1.004197 -0.53253,1.116594 -0.2929,0.112394 -0.63432,0.746862 -0.75871,1.409931 -0.12439,0.663069 -0.45424,1.2931 -0.733,1.400071 -0.27876,0.106967 -0.50683,0.648591 -0.50683,1.203605 0,0.61752 -0.28063,1.184372 -0.72316,1.46074 -0.40883,0.255313 -0.72317,0.843216 -0.72317,1.352512 0,0.659836 -0.1935,0.900892 -0.72316,0.900892 -0.48211,0 -0.72317,-0.241056 -0.72317,-0.723164 z m 2.46727,-12.772346 c 0.0643,-0.561512 0.43043,-1.334393 0.81355,-1.717515 0.38312,-0.383117 0.69659,-1.027109 0.69659,-1.43109 0,-0.403985 0.24406,-0.828171 0.54237,-0.942641 0.2983,-0.114473 0.54237,-0.502837 0.54237,-0.863034 0,-1.51629 0.37802,-1.798798 2.40693,-1.798798 1.08238,0 2.40734,-0.226166 2.94436,-0.502592 0.66615,-0.342891 2.717,-0.544463 6.45432,-0.634366 4.43649,-0.106721 5.60511,-0.244672 6.1469,-0.725616 0.36793,-0.326613 0.99439,-0.656343 1.39213,-0.732731 0.59767,-0.114788 0.71717,-0.411375 0.68865,-1.709194 -0.0233,-1.058426 -0.22954,-1.679447 -0.63277,-1.90511 -0.41527,-0.232396 -0.59826,-0.821496 -0.59826,-1.925985 0,-1.033621 -0.18877,-1.696824 -0.53871,-1.89266 -0.29629,-0.165811 -0.68877,-1.104724 -0.87218,-2.086473 -0.18341,-0.981749 -0.51048,-1.843999 -0.72683,-1.916113 -0.21634,-0.07212 -0.39335,-0.511031 -0.39335,-0.975371 0,-1.219699 -0.36434,-1.98814 -0.94264,-1.98814 -0.33111,0 -0.50369,-0.418437 -0.50369,-1.221265 0,-0.671692 -0.2429,-1.42285 -0.53978,-1.669237 -0.29688,-0.246386 -0.70993,-1.079869 -0.91789,-1.852183 -0.20796,-0.772314 -0.53455,-1.404208 -0.72576,-1.404208 -0.1912,0 -0.34764,-0.30348 -0.34764,-0.674401 0,-0.370921 -0.32543,-1.088111 -0.72317,-1.593756 -0.39774,-0.505644 -0.72316,-1.153216 -0.72316,-1.439049 0,-0.285832 -0.32542,-0.8142 -0.72316,-1.17415 -0.39774,-0.35995 -0.72317,-0.959766 -0.72317,-1.332925 0,-0.37316 -0.24407,-0.772129 -0.54237,-0.8866 -0.29831,-0.11447 -0.54237,-0.516143 -0.54237,-0.892606 0,-0.376464 -0.32543,-1.009903 -0.72317,-1.407643 -0.39774,-0.39774 -0.72316,-0.942013 -0.72316,-1.209496 0,-0.267483 -0.32543,-0.780837 -0.72317,-1.140786 -0.39774,-0.35995 -0.72316,-0.865219 -0.72316,-1.12282 0,-0.257601 -0.23472,-0.599722 -0.5216,-0.760268 -0.28688,-0.160547 -0.65829,-0.61609 -0.82535,-1.012318 -0.63334,-1.502169 -1.74376,-3.066211 -2.17847,-3.06841 -0.24859,-0.0013 -0.45198,-0.32771 -0.45198,-0.72545 0,-0.39774 -0.22643,-0.723164 -0.50317,-0.723164 -0.27675,0 -0.59848,-0.366102 -0.71495,-0.813559 -0.11648,-0.447458 -0.76099,-1.406612 -1.43225,-2.131454 -0.67126,-0.724842 -1.32069,-1.57908 -1.44319,-1.898305 -0.30473,-0.794112 -3.07244,-0.810612 -3.37578,-0.02013 -0.11825,0.308157 -0.84534,1.21635 -1.61577,2.018205 -0.77042,0.801857 -1.40077,1.634384 -1.40077,1.850061 0,0.375987 -0.53444,1.038632 -1.8983,2.353683 -0.34802,0.335567 -0.63277,0.792809 -0.63277,1.016095 0,0.223286 -0.32542,0.700479 -0.72316,1.060428 -0.39774,0.35995 -0.72317,0.95466 -0.72317,1.321578 0,0.366917 -0.24407,0.667123 -0.54237,0.667123 -0.29831,0 -0.54237,0.219171 -0.54237,0.487047 0,0.267876 -0.32543,0.862264 -0.72317,1.320863 -0.39774,0.458598 -0.72316,1.134342 -0.72316,1.501653 0,0.367311 -0.22666,0.667838 -0.50369,0.667838 -0.55286,0 -0.94264,0.759789 -0.94264,1.837483 0,0.381475 -0.24097,0.693591 -0.53548,0.693591 -0.29452,0 -0.63591,0.400105 -0.75864,0.889123 -0.12274,0.489018 -0.45126,1.078433 -0.73006,1.309811 -0.27879,0.231378 -0.50689,0.726187 -0.50689,1.099577 0,0.373389 -0.32543,1.004314 -0.72317,1.402054 -0.39774,0.39774 -0.72316,0.982245 -0.72316,1.2989 0,0.316655 -0.32542,0.989446 -0.72316,1.49509 -0.39774,0.505645 -0.72317,1.202912 -0.72317,1.549482 0,0.34657 -0.22376,0.815834 -0.49725,1.042809 -0.27349,0.226975 -0.59799,1.042696 -0.72112,1.812717 -0.12314,0.770018 -0.46886,1.494042 -0.76829,1.608942 -0.31916,0.122472 -0.54441,0.662433 -0.54441,1.305007 0,0.613985 -0.31808,1.414173 -0.72317,1.819257 -0.45012,0.450122 -0.72316,1.205271 -0.72316,2.000047 0,0.757868 -0.20473,1.355451 -0.50369,1.47017 -0.29554,0.11341 -0.60358,0.992785 -0.74541,2.127996 -0.15128,1.210805 -0.44418,2.012403 -0.7828,2.142344 -0.86769,0.332963 -0.53088,3.241076 0.39577,3.417152 0.39278,0.07463 0.90277,0.393658 1.13331,0.708939 0.34324,0.469406 1.45826,0.600895 6.15591,0.725934 4.07168,0.108377 5.94375,0.297069 6.44996,0.650114 0.42098,0.2936 1.64329,0.497417 2.98306,0.497417 2.18245,0 2.26982,0.03493 2.26982,0.907495 0,0.49912 0.32543,1.186129 0.72317,1.526685 0.39774,0.340556 0.72316,1.035003 0.72316,1.543221 0,0.508218 0.32543,1.202665 0.72317,1.543221 0.39774,0.340556 0.72316,0.919091 0.72316,1.285634 0,0.994245 0.36631,1.193603 1.97558,1.075163 1.30187,-0.09581 1.47208,-0.217639 1.57643,-1.128341 z"
     id="path1525"
     inkscape:connector-curvature="0" />
  <path
     style="fill:#ff00ff;fill-opacity:1;stroke:none;stroke-width:0.36158192"
     d="m 41.292654,58.895258 c -0.2983,-0.170429 -1.24522,-0.425765 -2.10427,-0.567413 -0.85904,-0.141648 -1.64933,-0.485393 -1.7562,-0.763879 -0.10686,-0.278485 -0.33221,-0.506337 -0.50076,-0.506337 -0.3985,0 -2.14724,-1.74874 -2.14724,-2.147242 0,-0.168553 -0.22352,-0.392235 -0.49672,-0.497069 -0.27319,-0.104834 -0.60845,-0.813768 -0.74501,-1.575408 -0.13656,-0.761641 -0.42998,-1.902903 -0.65205,-2.536138 -0.29032,-0.827817 -0.29369,-1.285029 -0.012,-1.627118 0.21547,-0.261681 0.50518,-1.237715 0.64381,-2.168966 0.13862,-0.93125 0.47927,-1.780381 0.757,-1.886956 0.27773,-0.106576 0.50496,-0.442949 0.50496,-0.747495 0,-0.304547 0.16774,-0.553721 0.37276,-0.553721 0.20501,0 0.89541,-0.569492 1.53422,-1.265537 0.80741,-0.87976 1.47623,-1.265537 2.19407,-1.265537 0.56793,0 1.60153,-0.269976 2.2969,-0.599948 1.17774,-0.558875 1.33382,-0.558875 2.27992,0 0.5586,0.329972 1.6007,0.599948 2.31578,0.599948 0.91462,0 1.30014,0.160823 1.30014,0.542373 0,0.298305 0.1502,0.542373 0.33377,0.542373 0.43424,0 2.55889,2.124646 2.55889,2.558887 0,0.183573 0.22336,0.333768 0.49636,0.333768 0.32483,0 0.58595,0.656042 0.75556,1.898306 0.59574,4.3632 0.16168,6.836487 -1.48957,8.487736 -0.66477,0.664777 -1.20868,1.365974 -1.20868,1.558215 0,0.192241 -0.24918,0.349529 -0.55372,0.349529 -0.30455,0 -0.64605,0.240596 -0.75889,0.534658 -0.12267,0.319656 -0.92108,0.629627 -1.98547,0.770824 -0.97917,0.12989 -1.86761,0.37743 -1.97432,0.550087 -0.2449,0.39626 -1.25038,0.387053 -1.95924,-0.01794 z m 4.12334,-5.881561 c 1.23714,-1.095273 1.30039,-1.26372 1.30039,-3.462842 0,-2.072779 -0.10918,-2.420748 -1.05693,-3.368498 -0.94775,-0.94775 -1.29572,-1.056932 -3.3685,-1.056932 -2.21276,0 -2.36239,0.05741 -3.50069,1.343136 -1.09684,1.238902 -1.17788,1.498471 -1.04434,3.344739 0.11331,1.566464 0.35289,2.209708 1.10205,2.958867 1.20906,1.209061 1.52506,1.329315 3.58497,1.364261 1.40005,0.02375 1.90108,-0.164822 2.98305,-1.122731 z"
     id="path1527"
     inkscape:connector-curvature="0" />
</svg>
