<?xml version="1.0" encoding="UTF-8" standalone="no"?>
<!-- Created with Inkscape (http://www.inkscape.org/) -->

<svg
   xmlns:dc="http://purl.org/dc/elements/1.1/"
   xmlns:cc="http://creativecommons.org/ns#"
   xmlns:rdf="http://www.w3.org/1999/02/22-rdf-syntax-ns#"
   xmlns:svg="http://www.w3.org/2000/svg"
   xmlns="http://www.w3.org/2000/svg"
   xmlns:sodipodi="http://sodipodi.sourceforge.net/DTD/sodipodi-0.dtd"
   xmlns:inkscape="http://www.inkscape.org/namespaces/inkscape"
   version="1.1"
   id="svg885"
   width="85.333336"
   height="85.333336"
   viewBox="0 0 85.333336 85.333336"
   sodipodi:docname="spaceship.svg"
   inkscape:version="0.92.5 (2060ec1f9f, 2020-04-08)">
  <metadata
     id="metadata891">
    <rdf:RDF>
      <cc:Work
         rdf:about="">
        <dc:format>image/svg+xml</dc:format>
        <dc:type
           rdf:resource="http://purl.org/dc/dcmitype/StillImage" />
        <dc:title></dc:title>
      </cc:Work>
    </rdf:RDF>
  </metadata>
  <defs
     id="defs889" />
  <sodipodi:namedview
     pagecolor="#ffffff"
     bordercolor="#666666"
     borderopacity="1"
     objecttolerance="10"
     gridtolerance="10"
     guidetolerance="10"
     inkscape:pageopacity="0"
     inkscape:pageshadow="2"
     inkscape:window-width="1920"
     inkscape:window-height="1019"
     id="namedview887"
     showgrid="false"
     inkscape:zoom="9.597656"
     inkscape:cx="14.430607"
     inkscape:cy="54.231992"
     inkscape:window-x="0"
     inkscape:window-y="29"
     inkscape:window-maximized="1"
     inkscape:current-layer="svg885" />
  <path
     style="fill:#ff0000;fill-opacity:1;stroke:none;stroke-width:0.10419211"
     d="m 25.244137,69.918431 c -0.02034,-0.07181 -0.08283,-0.54267 -0.138852,-1.046362 -0.111652,-1.003834 -0.318524,-1.361734 -0.855242,-1.479617 l -0.281868,-0.06191 -0.109118,-1.593692 c -0.06001,-0.876531 -0.165493,-1.699029 -0.234395,-1.827774 -0.0689,-0.128746 -0.297327,-0.312165 -0.50761,-0.407599 -0.343097,-0.155708 -1.14956,-0.17683 -7.858118,-0.205805 l -7.4757838,-0.03229 0.0014,-5.281507 c 7.83e-4,-2.904829 0.02751,-5.37528 0.05939,-5.489891 0.03188,-0.114612 0.240252,-0.293351 0.46304,-0.397199 0.284915,-0.132807 0.4427,-0.292877 0.531928,-0.539632 0.128644,-0.355759 0.32447,-0.465703 0.834179,-0.468341 0.4186228,-0.0022 0.7198448,-0.307668 0.7854218,-0.796586 l 0.05746,-0.428362 0.587181,-0.05444 c 0.769597,-0.07136 1.478695,-0.44483 1.681199,-0.885469 0.09684,-0.210712 0.255375,-0.362463 0.416769,-0.398929 0.891713,-0.201474 1.090999,-0.305146 1.183144,-0.615493 0.224749,-0.756958 0.246578,-0.781441 0.696756,-0.781441 0.629304,0 1.510753,-0.437847 1.723517,-0.856132 0.226205,-0.444711 0.170498,-0.405908 0.733846,-0.511153 0.614021,-0.114711 0.838751,-0.313571 0.923896,-0.81754 0.06496,-0.384463 0.08092,-0.396882 0.59825,-0.46551 1.156891,-0.153466 2.16338,-1.179494 2.163386,-2.205383 3e-6,-0.455604 0.03801,-0.540498 0.355287,-0.793657 0.682009,-0.544176 0.829255,-1.53338 0.953197,-6.403618 l 0.07207,-2.831991 0.294467,-0.121973 c 0.161957,-0.06709 0.367358,-0.233218 0.456446,-0.369185 0.247738,-0.378094 0.473332,-1.370357 0.473332,-2.08192 0,-0.351644 0.03046,-1.068532 0.0677,-1.593088 0.06011,-0.84678 0.09009,-0.953734 0.26733,-0.953734 0.633603,0 0.875412,-0.493878 1.013771,-2.070557 l 0.100397,-1.144077 0.539047,-0.525063 c 0.606101,-0.590375 0.708523,-0.899745 0.716215,-2.163319 l 0.0045,-0.745505 0.442816,-0.140128 c 0.57517,-0.182009 0.789851,-0.608264 0.877265,-1.741826 0.06494,-0.842145 0.06691,-0.846815 0.356625,-0.846815 0.498665,0 0.804669,-0.379274 0.924704,-1.146113 0.05831,-0.372487 0.106364,-0.853073 0.106798,-1.067969 7.29e-4,-0.344306 0.03092,-0.390721 0.254484,-0.390721 0.666282,0 0.824275,-0.192067 1.044209,-1.269409 0.03463,-0.16966 0.149151,-0.307642 0.291265,-0.350948 0.547731,-0.166909 0.888321,-0.748523 1.001026,-1.70942 0.06665,-0.568289 0.06703,-0.568782 0.535566,-0.703446 0.559231,-0.160732 0.684953,-0.308799 0.775633,-0.91349 0.06137,-0.409281 0.103379,-0.464456 0.401846,-0.527858 0.463734,-0.09851 0.662766,-0.304593 0.855982,-0.88631 0.129353,-0.389449 0.249174,-0.544462 0.535846,-0.693231 0.396724,-0.205885 0.973151,-1.134484 0.973195,-1.567785 3e-5,-0.292596 0.346912,-0.6512 0.629912,-0.6512 0.274535,0 0.72461,-0.449335 0.72461,-0.723418 0,-0.315268 0.320708,-0.63108 0.640865,-0.63108 0.35163,0 0.570816,-0.212108 0.665725,-0.644226 0.09014,-0.410416 0.246294,-0.574592 0.634425,-0.667025 0.398604,-0.094927 0.663787,-0.3383306 0.663787,-0.6092678 0,-0.3772703 0.282445,-0.6608764 0.734177,-0.7371961 0.244009,-0.041225 0.475114,-0.1552711 0.546598,-0.2697357 0.179689,-0.2877265 1.315945,-0.2866878 1.576698,0.00144 0.106062,0.1171981 0.392635,0.2288921 0.693397,0.2702575 0.441788,0.060761 0.512622,0.1029973 0.512622,0.3056588 0,0.4769814 0.219191,0.890462 0.505325,0.9532415 0.620758,0.1361988 0.798526,0.2255278 0.827181,0.4156608 0.114055,0.756772 0.294753,0.981191 0.790037,0.981191 0.427456,0 0.586452,0.161014 0.586452,0.593895 0,0.392305 0.305131,0.760603 0.630151,0.760603 0.258994,0 0.715753,0.493654 0.723034,0.78144 0.0083,0.328042 0.596182,1.18306 0.966932,1.406307 0.251658,0.151538 0.389452,0.354386 0.545166,0.802547 0.192237,0.553276 0.244672,0.613104 0.676668,0.772058 0.429523,0.158045 0.475658,0.20998 0.557369,0.627444 0.115124,0.588175 0.212789,0.696511 0.749801,0.831732 0.426858,0.107484 0.44664,0.130458 0.514028,0.59694 0.09235,0.639284 0.343209,1.379444 0.542047,1.599314 0.08776,0.09704 0.290584,0.205209 0.450731,0.240383 0.300578,0.06602 0.412471,0.280541 0.415138,0.795901 0.0021,0.407435 0.318789,0.731516 0.789315,0.807758 l 0.410316,0.06649 0.07264,0.875265 c 0.108157,1.303138 0.276534,1.569122 1.07347,1.695747 0.182202,0.02895 0.217511,0.14312 0.281028,0.908715 0.09136,1.101229 0.21913,1.414886 0.639591,1.57014 0.655826,0.242161 0.638379,0.207337 0.699776,1.396711 l 0.05751,1.11415 0.589786,0.553296 0.589785,0.553294 0.102102,1.260762 c 0.127719,1.577095 0.282506,1.901437 0.973671,2.04024 0.286175,0.05747 0.286531,0.05867 0.289216,0.971828 0.0041,1.394777 0.181532,2.932428 0.386809,3.352152 0.100958,0.206426 0.352002,0.483894 0.557875,0.616594 l 0.374316,0.241272 0.07181,3.226213 c 0.09994,4.489798 0.264608,5.541065 0.936951,5.981601 0.216945,0.142146 0.278811,0.286678 0.334891,0.782367 0.05163,0.456336 0.130633,0.661783 0.316701,0.823567 0.136351,0.118556 0.247911,0.261663 0.247911,0.318014 0,0.05635 0.231315,0.285303 0.514034,0.50878 0.394345,0.311711 0.643014,0.422484 1.067969,0.475741 0.550664,0.06901 0.554859,0.0723 0.710224,0.557672 0.160942,0.502792 0.333818,0.621469 1.161455,0.797326 0.167629,0.03562 0.359047,0.199664 0.487991,0.418207 0.256115,0.434083 0.922746,0.795836 1.624517,0.881559 0.508572,0.06212 0.514249,0.067 0.677248,0.581696 0.172972,0.54619 0.188675,0.55722 1.115799,0.783747 0.326388,0.07975 0.460443,0.17756 0.554473,0.404567 0.16042,0.387289 1.003677,0.849991 1.706329,0.936274 0.528438,0.06489 0.532859,0.06852 0.619848,0.508726 0.09108,0.460918 0.439569,0.754841 0.894973,0.754841 0.363132,0 0.539246,0.121871 0.686944,0.475363 0.09307,0.222747 0.291139,0.420693 0.556325,0.555982 0.22649,0.115546 0.441025,0.286246 0.476746,0.379332 0.03572,0.09309 0.06495,2.556622 0.06495,5.474524 v 5.305276 l -6.954824,0.0032 c -3.838976,0.0018 -7.301673,0.04823 -7.729021,0.103696 -1.247781,0.161944 -1.332497,0.315853 -1.453599,2.640825 l -0.06443,1.236951 -0.354914,0.117545 c -0.579751,0.192009 -0.748324,0.526395 -0.826595,1.63965 l -0.0688,0.978505 -16.699933,0.02636 C 28.670467,70.043624 25.273546,70.0225 25.244062,69.918412 Z m 28.641317,-4.25807 c 0.422919,-0.117413 1.450709,-1.044282 1.723779,-1.554519 0.135503,-0.253188 0.296921,-2.6201 0.305877,-4.485141 0.0044,-0.925979 0.02177,-1.00739 0.239226,-1.124265 0.3211,-0.172579 0.670623,-0.734745 0.830504,-1.335767 0.196162,-0.737416 0.193383,-19.098376 -0.003,-19.952451 -0.153363,-0.666909 -0.489797,-1.234632 -0.818075,-1.380477 -0.209036,-0.09287 -0.223567,-0.198434 -0.294008,-2.135938 -0.107359,-2.952982 -0.24175,-3.435492 -0.999052,-3.586953 -0.303787,-0.06076 -0.305288,-0.06476 -0.30713,-0.819053 -0.0029,-1.173211 -0.178742,-2.575523 -0.357175,-2.847846 -0.089,-0.135823 -0.341724,-0.294855 -0.56346,-0.354562 l -0.402083,-0.10827 -0.05504,-1.078419 c -0.0649,-1.271546 -0.148068,-1.474948 -0.906436,-2.21676 -0.313686,-0.306839 -0.367985,-0.438622 -0.434454,-1.054415 -0.108188,-1.002274 -0.410605,-1.649807 -0.87363,-1.870609 -0.377533,-0.180032 -0.406473,-0.239582 -0.519667,-1.069343 -0.0531,-0.38924 -0.153992,-0.550393 -0.619693,-0.989825 -0.510427,-0.481634 -0.565632,-0.579789 -0.669918,-1.191102 -0.1336,-0.78315 -0.325041,-1.033494 -0.855146,-1.118261 -0.379812,-0.06073 -0.390184,-0.07452 -0.456714,-0.607013 -0.07981,-0.63875 -0.592282,-1.496856 -1.014922,-1.699422 -0.221696,-0.106256 -0.302595,-0.248164 -0.394872,-0.692657 -0.130377,-0.628026 -0.30786,-0.835317 -0.829979,-0.969374 -0.318949,-0.08189 -0.373574,-0.1486 -0.487557,-0.595416 C 44.96239,10.193583 44.882341,10.114614 44.330621,10.04098 43.885928,9.98163 43.885709,9.98138 43.827253,9.472316 43.762713,8.91024 43.47114,8.57501 43.046805,8.57501 c -0.133533,0 -0.271765,-0.04689 -0.307182,-0.104192 -0.07955,-0.128719 -1.580917,-0.139403 -1.659774,-0.01181 -0.0314,0.05081 -0.221144,0.123156 -0.421651,0.160772 -0.402666,0.07554 -0.511536,0.222343 -0.623419,0.840626 -0.08244,0.455594 -0.192983,0.569279 -0.555895,0.571699 -0.372698,0.0025 -0.750657,0.448472 -0.750657,0.885763 0,0.376975 -0.02611,0.401502 -0.549659,0.516374 -0.425148,0.09328 -0.663841,0.387268 -0.742996,0.915107 -0.05843,0.389616 -0.134629,0.509771 -0.454856,0.717213 -0.481392,0.311845 -0.862204,0.989605 -0.947829,1.686918 -0.06538,0.532447 -0.06826,0.53596 -0.510423,0.623337 -0.535026,0.105726 -0.704109,0.337859 -0.797862,1.095377 -0.05951,0.480826 -0.132425,0.614576 -0.568027,1.041921 -0.583492,0.572434 -0.741614,0.835874 -0.743568,1.238825 -0.0026,0.542876 -0.120865,0.767006 -0.484823,0.919078 -0.449516,0.187821 -0.812955,0.962052 -0.896211,1.909194 -0.05391,0.613319 -0.08775,0.684931 -0.483868,1.023992 -0.234246,0.200506 -0.425902,0.415819 -0.425902,0.478473 0,0.06266 -0.07356,0.195204 -0.163473,0.294553 -0.14345,0.15851 -0.344229,1.495912 -0.354664,2.362431 -0.0021,0.176239 -0.064,0.234432 -0.249252,0.234432 -0.354583,0 -0.767247,0.364977 -0.85553,0.756663 -0.04182,0.185544 -0.104027,0.986546 -0.13824,1.780003 l -0.0622,1.442647 -0.409337,0.140404 c -0.71838,0.246408 -0.777289,0.468054 -0.859385,3.233442 l -0.06518,2.19565 -0.374968,0.200769 c -0.648451,0.347198 -0.74107,0.826778 -0.863779,4.472645 -0.121658,3.614612 -0.02948,15.577322 0.128425,16.666013 0.116619,0.804063 0.466095,1.501658 0.857131,1.710934 l 0.253533,0.135688 0.05871,2.465294 c 0.03475,1.459155 0.107543,2.59197 0.17836,2.77568 0.180393,0.467969 1.386885,1.626239 1.794498,1.722774 0.565804,0.133999 23.403846,0.121249 23.888625,-0.01334 z M 21.868995,57.630067 c 0.314073,-0.141443 0.406709,-0.25537 0.505273,-0.621408 0.138605,-0.51474 0.06935,-1.758405 -0.172878,-3.10468 -0.183542,-1.020091 -0.370682,-1.516128 -0.709589,-1.88086 -0.182032,-0.195901 -0.256015,-0.42532 -0.298411,-0.925369 -0.03349,-0.395016 -0.121777,-0.730293 -0.217512,-0.826028 -0.340184,-0.340184 -1.848946,-0.315032 -2.109349,0.03516 -0.0645,0.08674 -0.147104,0.344275 -0.183566,0.5723 -0.06508,0.407007 -0.07437,0.414647 -0.507882,0.417789 -0.242871,0.0018 -0.698581,0.107319 -1.012687,0.234575 -0.455515,0.184545 -0.619048,0.318289 -0.807994,0.660813 -0.201887,0.365981 -0.30033,0.439582 -0.666204,0.498087 -0.642998,0.10282 -0.807267,0.231815 -0.933473,0.733026 -0.11875,0.471599 -0.266205,0.57483 -0.82543,0.577871 -0.359585,0.002 -1.250228,0.607483 -1.483074,1.008308 -0.27602,0.475144 -0.422938,1.509852 -0.286388,2.016959 0.208578,0.774598 0.512455,0.819222 5.417377,0.795525 3.391826,-0.01638 3.957932,-0.04172 4.291787,-0.192072 z m 49.184646,0.03362 c 0.464857,-0.152456 0.703463,-0.545397 0.703463,-1.158478 0,-0.573473 -0.197348,-1.007456 -0.712153,-1.56607 -0.236961,-0.257127 -0.496789,-0.559496 -0.577395,-0.67193 -0.102382,-0.14281 -0.313952,-0.221323 -0.701922,-0.260481 L 69.21027,53.950678 69.12269,53.506006 C 69.02217,52.995625 68.791048,52.80657 68.139465,52.70174 67.762537,52.6411 67.665748,52.569771 67.462216,52.202654 67.27388,51.862946 67.106177,51.725612 66.65169,51.538906 66.336509,51.409427 65.879366,51.301305 65.635817,51.298635 65.276112,51.294735 65.193,51.257585 65.193,51.100943 c 0,-0.383374 -0.224171,-0.822829 -0.478953,-0.938915 -0.460973,-0.210034 -1.494652,-0.143589 -2.091843,0.134463 -0.973491,0.453259 -1.062321,0.748935 -1.172008,3.901096 -0.110398,3.172581 -0.05354,3.411712 0.847687,3.564908 0.772439,0.131306 8.313596,0.04621 8.755757,-0.0988 z"
     id="path895"
     inkscape:connector-curvature="0" />
  <path
     style="fill:#ff0000;fill-opacity:1;stroke:none;stroke-width:0.10419211"
     d="M 41.118923,57.382143 C 40.79213,56.988381 39.929058,56.774212 38.181197,56.653152 l -1.015873,-0.07036 v -0.286134 c 0,-0.457463 -0.353302,-0.812912 -0.887647,-0.893042 -0.428634,-0.06428 -0.473326,-0.100226 -0.569737,-0.45827 -0.123063,-0.457021 -0.351761,-0.689069 -0.782746,-0.794212 -0.368989,-0.09002 -0.465112,-0.208741 -0.467269,-0.577128 -0.0024,-0.414745 -0.358608,-0.793128 -0.819957,-0.871072 l -0.400766,-0.06771 -0.06664,-1.165636 c -0.07738,-1.353526 -0.272625,-2.269854 -0.569067,-2.670814 -0.11652,-0.157601 -0.242851,-0.549005 -0.284316,-0.880876 -0.06973,-0.558131 -0.05594,-0.616746 0.210544,-0.894899 0.366058,-0.382082 0.557096,-1.177785 0.642839,-2.677522 l 0.06664,-1.165636 0.400766,-0.06771 c 0.461349,-0.07794 0.817529,-0.456328 0.819957,-0.871073 0.0022,-0.378068 0.101649,-0.49527 0.492047,-0.579963 0.390013,-0.08461 0.756663,-0.496822 0.756663,-0.850693 0,-0.181746 0.07349,-0.260799 0.286528,-0.308209 0.582228,-0.129572 0.707326,-0.176776 0.887213,-0.334779 0.101153,-0.08885 0.211213,-0.332255 0.244578,-0.540903 l 0.06066,-0.37936 1.370399,-0.118643 c 1.64363,-0.142298 2.090976,-0.260892 2.49027,-0.660185 0.263095,-0.263095 0.380226,-0.302754 0.894181,-0.302754 0.516099,0 0.627359,0.03807 0.873524,0.298881 0.35921,0.380584 1.210829,0.599634 2.714362,0.698178 1.101865,0.07222 1.122647,0.07832 1.176673,0.345718 0.121705,0.602372 0.29349,0.78876 0.831381,0.902058 0.486433,0.102459 0.525417,0.135238 0.659476,0.554532 0.138315,0.432602 0.326397,0.583979 0.971835,0.782179 0.106373,0.03267 0.204237,0.21176 0.246126,0.450423 0.10711,0.610249 0.297469,0.836395 0.771448,0.916473 0.231448,0.0391 0.421926,0.0787 0.423283,0.08799 0.0014,0.0093 0.04522,0.556084 0.09747,1.215099 0.123809,1.561581 0.276234,2.227987 0.596714,2.608856 0.24038,0.285675 0.255307,0.362246 0.186381,0.956105 -0.04219,0.363562 -0.160466,0.761367 -0.270749,0.91067 -0.226327,0.306404 -0.507562,1.65188 -0.509235,2.436262 -6.25e-4,0.295814 -0.02953,0.709474 -0.06422,0.919246 -0.05727,0.346308 -0.104529,0.391843 -0.513629,0.494855 -0.5149,0.129654 -0.542441,0.161186 -0.706717,0.809106 -0.10973,0.432786 -0.163897,0.492571 -0.587098,0.647998 -0.40267,0.147886 -0.487876,0.233313 -0.625153,0.626768 -0.146815,0.420799 -0.198152,0.465486 -0.67309,0.585895 -0.540341,0.136991 -0.787183,0.361916 -0.789844,0.719717 -0.0029,0.392033 -0.139028,0.454211 -1.144576,0.522858 -1.437114,0.09811 -2.478942,0.337826 -2.781,0.639884 -0.211213,0.211213 -0.352311,0.249985 -0.90974,0.249985 -0.471686,0 -0.698354,-0.04651 -0.795164,-0.163158 z m 2.988726,-5.124469 c 0.402873,-0.14912 0.550342,-0.272431 0.715795,-0.598536 0.263034,-0.518437 0.330402,-0.585926 0.802781,-0.804248 0.212307,-0.09812 0.454092,-0.310058 0.537301,-0.470967 0.503174,-0.973032 0.502452,-3.981148 -0.0012,-4.955083 -0.09117,-0.176296 -0.332133,-0.37187 -0.599264,-0.486375 -0.35242,-0.151065 -0.499717,-0.298292 -0.697399,-0.697066 -0.225409,-0.454707 -0.308248,-0.524389 -0.82367,-0.69285 -0.477221,-0.155975 -0.860564,-0.182112 -2.292227,-0.156288 -2.017109,0.03638 -2.402495,0.156762 -2.767828,0.864547 -0.126619,0.245308 -0.376606,0.507541 -0.607642,0.637411 -0.570523,0.3207 -0.68081,0.462518 -0.847884,1.090289 -0.201238,0.756139 -0.201058,3.082579 2.91e-4,3.839169 0.165444,0.621657 0.355168,0.861352 0.895202,1.13099 0.196978,0.09835 0.422871,0.319479 0.501985,0.491396 0.311698,0.677333 0.532847,0.798561 1.888142,1.035022 0.615967,0.107469 2.797576,-0.04307 3.295601,-0.227411 z"
     id="path897"
     inkscape:connector-curvature="0" />
</svg>
